<svg width="720" height="560" viewBox="0 0 720 560" fill="none" xmlns="http://www.w3.org/2000/svg">
  <rect width="720" height="560" rx="44" fill="#EEF6FF"/>
  <circle cx="580" cy="88" r="78" fill="#DBEAFE"/>
  <circle cx="126" cy="458" r="96" fill="#DCFCE7"/>
  <rect x="162" y="96" width="396" height="340" rx="30" fill="#FFFFFF" stroke="#CBD5E1" stroke-width="4"/>
  <rect x="204" y="148" width="312" height="48" rx="16" fill="#0F172A"/>
  <circle cx="228" cy="172" r="8" fill="#22C55E"/>
  <circle cx="254" cy="172" r="8" fill="#F59E0B"/>
  <circle cx="280" cy="172" r="8" fill="#EF4444"/>
  <rect x="204" y="230" width="136" height="124" rx="24" fill="#2563EB"/>
  <path d="M232 288h80M232 318h54" stroke="#BFDBFE" stroke-width="12" stroke-linecap="round"/>
  <rect x="372" y="230" width="104" height="26" rx="13" fill="#E2E8F0"/>
  <rect x="372" y="278" width="126" height="26" rx="13" fill="#E2E8F0"/>
  <rect x="372" y="326" width="86" height="26" rx="13" fill="#E2E8F0"/>
  <rect x="220" y="386" width="280" height="20" rx="10" fill="#DCFCE7"/>
  <path d="M230 392l38 -42 42 24 56 -78 58 52 52 -82" stroke="#22C55E" stroke-width="12" stroke-linecap="round" stroke-linejoin="round"/>
  <rect x="96" y="234" width="120" height="154" rx="22" fill="#0EA5E9"/>
  <rect x="118" y="262" width="76" height="16" rx="8" fill="#BAE6FD"/>
  <rect x="118" y="304" width="76" height="16" rx="8" fill="#E0F2FE"/>
  <rect x="118" y="344" width="48" height="16" rx="8" fill="#E0F2FE"/>
  <rect x="526" y="286" width="104" height="120" rx="24" fill="#16A34A"/>
  <path d="M554 328h48M554 360h32" stroke="#BBF7D0" stroke-width="12" stroke-linecap="round"/>
  <path d="M558 250c0 -28 22 -50 50 -50s50 22 50 50" stroke="#94A3B8" stroke-width="18" stroke-linecap="round"/>
  <circle cx="596" cy="236" r="30" fill="#FACC15"/>
  <path d="M596 216v40M578 236h36" stroke="#854D0E" stroke-width="10" stroke-linecap="round"/>
</svg>
